<?xml version="1.0" encoding="iso-8859-1"?>
<!-- Uploaded to: SVG Repo, www.svgrepo.com, Generator: SVG Repo Mixer Tools -->
<svg version="1.1" id="Layer_1" xmlns="http://www.w3.org/2000/svg" xmlns:xlink="http://www.w3.org/1999/xlink" 
	 viewBox="0 0 512 512" xml:space="preserve">
<rect x="51.2" y="81.067" style="fill:#FFFFFF;" width="409.6" height="256"/>
<path d="M503.467,29.867H8.533C3.84,29.867,0,33.707,0,38.4v341.333c0,4.693,3.84,8.533,8.533,8.533h494.933
	c4.693,0,8.533-3.84,8.533-8.533V38.4C512,33.707,508.16,29.867,503.467,29.867z M494.933,362.667c0,4.693-3.84,8.533-8.533,8.533
	H25.6c-4.693,0-8.533-3.84-8.533-8.533v-307.2c0-4.693,3.84-8.533,8.533-8.533h460.8c4.693,0,8.533,3.84,8.533,8.533V362.667z"/>
<path style="fill:#717272;" d="M486.4,46.933H25.6c-4.693,0-8.533,3.84-8.533,8.533v307.2c0,4.693,3.84,8.533,8.533,8.533h460.8
	c4.693,0,8.533-3.84,8.533-8.533v-307.2C494.933,50.773,491.093,46.933,486.4,46.933z M477.867,345.6
	c0,4.693-3.84,8.533-8.533,8.533H42.667c-4.693,0-8.533-3.84-8.533-8.533V72.533c0-4.693,3.84-8.533,8.533-8.533h426.667
	c4.693,0,8.533,3.84,8.533,8.533V345.6z"/>
<path d="M469.333,64H42.667c-4.693,0-8.533,3.84-8.533,8.533V345.6c0,4.693,3.84,8.533,8.533,8.533h426.667
	c4.693,0,8.533-3.84,8.533-8.533V72.533C477.867,67.84,474.027,64,469.333,64z M460.8,337.067H51.2v-256h409.6V337.067z"/>
<path d="M384,465.067c-18.517,0-34.133-23.467-34.133-51.2c0-4.693-3.84-8.533-8.533-8.533H170.667c-4.693,0-8.533,3.84-8.533,8.533
	c0,27.733-15.616,51.2-34.133,51.2c-4.693,0-8.533,3.84-8.533,8.533s3.84,8.533,8.533,8.533h256c4.693,0,8.533-3.84,8.533-8.533
	S388.693,465.067,384,465.067z M161.792,465.067c9.131-10.752,15.445-25.771,16.981-42.667h154.453
	c1.536,16.896,7.851,31.915,16.981,42.667H161.792z"/>
<path style="fill:#555656;" d="M350.208,465.067H161.792c9.131-10.752,15.445-25.771,16.981-42.667h154.453
	C334.763,439.296,341.077,454.315,350.208,465.067z"/>
<polygon style="fill:#F4F4F4;" points="443.733,81.067 443.733,320 51.2,320 51.2,337.067 460.8,337.067 460.8,81.067 "/>
</svg>