<?xml version="1.0" encoding="iso-8859-1"?>
<!-- Uploaded to: SVG Repo, www.svgrepo.com, Generator: SVG Repo Mixer Tools -->
<svg version="1.1" id="Layer_1" xmlns="http://www.w3.org/2000/svg" xmlns:xlink="http://www.w3.org/1999/xlink" 
	 viewBox="0 0 511.992 511.992" xml:space="preserve">
<path d="M471.656,392.38H40.344C18.152,392.38,0,374.22,0,352.028V87.124C0,64.932,18.152,46.78,40.344,46.78h431.304
	c22.192,0,40.344,18.152,40.344,40.344v264.904C512,374.22,493.848,392.38,471.656,392.38z"/>
<rect x="25.6" y="72.388" style="fill:#FFA624;" width="460.8" height="294.4"/>
<rect x="166.624" y="392.388" style="fill:#666666;" width="152.64" height="54.744"/>
<polygon points="332.064,458.7 153.824,458.7 166.624,447.116 319.264,447.116 "/>
<polygon points="166.624,392.38 284.8,392.38 166.624,411.796 "/>
<rect x="153.824" y="458.708" style="fill:#666666;" width="178.24" height="6.504"/>
<g style="opacity:0.15;">
	<polygon style="fill:#FFFFFF;" points="25.6,246.388 25.6,72.38 232.352,72.38 	"/>
</g>
</svg>