<?xml version="1.0" encoding="utf-8"?><!-- Uploaded to: SVG Repo, www.svgrepo.com, Generator: SVG Repo Mixer Tools -->
<svg fill="#000000" width="800px" height="800px" viewBox="0 0 24 24" id="monitor" data-name="Flat Color" xmlns="http://www.w3.org/2000/svg" class="icon flat-color"><path id="secondary" d="M17,19.76l-1-4A1,1,0,0,0,15,15H9a1,1,0,0,0-1,.76l-1,4a1,1,0,0,0,.18.86A1,1,0,0,0,8,21h8a1,1,0,0,0,.79-.38A1,1,0,0,0,17,19.76Z" style="fill: rgb(44, 169, 188);"></path><path id="primary" d="M19,20a1,1,0,0,1-1,1H6a1,1,0,0,1,0-2H18A1,1,0,0,1,19,20ZM20,3H4A2,2,0,0,0,2,5V15a2,2,0,0,0,2,2H20a2,2,0,0,0,2-2V5A2,2,0,0,0,20,3Z" style="fill: rgb(0, 0, 0);"></path></svg>